<svg width="20" height="18" fill="none" xmlns="http://www.w3.org/2000/svg"><path fill-rule="evenodd" clip-rule="evenodd" d="M7.612 3.084C7.16 3.711 7 4.494 7 5v1h6V5c0-.507-.16-1.289-.611-1.916C11.974 2.508 11.274 2 10 2c-1.274 0-1.974.508-2.388 1.084ZM15 6V5c0-.827-.24-2.044-.988-3.084C13.226.825 11.926 0 10 0 8.074 0 6.774.825 5.988 1.916 5.24 2.956 5 4.173 5 5v1H1a1 1 0 0 0 0 2h.095l.91 9.1A1 1 0 0 0 3 18h14a1 1 0 0 0 .995-.9l.91-9.1H19a1 1 0 1 0 0-2h-4Zm-8 5a1 1 0 1 0-2 0v2a1 1 0 1 0 2 0v-2Zm4 0a1 1 0 0 0-2 0v2a1 1 0 1 0 2 0v-2Zm4 0a1 1 0 0 0-2 0v2a1 1 0 0 0 2 0v-2Z" fill="#AE1332"/></svg>